<?xml version="1.0" encoding="UTF-8" standalone="no"?>
<!DOCTYPE svg PUBLIC "-//W3C//DTD SVG 1.1//EN"
 "http://www.w3.org/Graphics/SVG/1.1/DTD/svg11.dtd">
<!-- Generated by graphviz version 2.38.0 (20140413.2041)
 -->
<!-- Title: test Pages: 1 -->
<svg width="546pt" height="857pt"
 viewBox="0.00 0.00 546.00 857.40" xmlns="http://www.w3.org/2000/svg" xmlns:xlink="http://www.w3.org/1999/xlink">
<g id="graph0" class="graph" transform="scale(1 1) rotate(0) translate(4 853.403)">
<title>test</title>
<polygon fill="white" stroke="none" points="-4,4 -4,-853.403 542,-853.403 542,4 -4,4"/>
<!-- thread1 -->
<g id="node1" class="node"><title>thread1</title>
<polygon fill="grey" stroke="black" points="538,-849.403 418,-849.403 418,-813.403 538,-813.403 538,-849.403"/>
<text text-anchor="middle" x="478" y="-827.703" font-family="Times,serif" font-size="14.00">OS thread1 routine</text>
</g>
<!-- hook -->
<g id="node2" class="node"><title>hook</title>
<polygon fill="#ff4040" stroke="black" points="239.5,-777.403 136.5,-777.403 136.5,-741.403 239.5,-741.403 239.5,-777.403"/>
<text text-anchor="middle" x="188" y="-755.703" font-family="Times,serif" font-size="14.00">Hooked IO API</text>
</g>
<!-- thread1&#45;&gt;hook -->
<g id="edge1" class="edge"><title>thread1&#45;&gt;hook</title>
<path fill="none" stroke="black" d="M417.685,-815.692C414.41,-814.913 411.166,-814.146 408,-813.403 340.491,-797.564 320.914,-795.309 249.481,-777.459"/>
<polygon fill="black" stroke="black" points="250.089,-774.003 239.537,-774.958 248.381,-780.792 250.089,-774.003"/>
</g>
<!-- resume -->
<g id="node3" class="node"><title>resume</title>
<polygon fill="#ff4040" stroke="black" points="451.5,-705.403 390.5,-705.403 390.5,-669.403 451.5,-669.403 451.5,-705.403"/>
<text text-anchor="middle" x="421" y="-683.703" font-family="Times,serif" font-size="14.00">Resume</text>
</g>
<!-- thread1&#45;&gt;resume -->
<g id="edge2" class="edge"><title>thread1&#45;&gt;resume</title>
<path fill="none" stroke="black" d="M481.354,-813.176C484.136,-794.614 486.178,-764.617 476,-741.403 471.141,-730.32 462.756,-720.403 453.977,-712.229"/>
<polygon fill="black" stroke="black" points="456.084,-709.424 446.239,-705.51 451.494,-714.709 456.084,-709.424"/>
</g>
<!-- yield_wait -->
<g id="node4" class="node"><title>yield_wait</title>
<polygon fill="#ff4040" stroke="black" points="327.5,-705.403 250.5,-705.403 250.5,-669.403 327.5,-669.403 327.5,-705.403"/>
<text text-anchor="middle" x="289" y="-683.703" font-family="Times,serif" font-size="14.00">Yield/Wait</text>
</g>
<!-- thread1&#45;&gt;yield_wait -->
<g id="edge3" class="edge"><title>thread1&#45;&gt;yield_wait</title>
<path fill="none" stroke="black" d="M455.202,-813.275C421.43,-787.901 358.017,-740.258 320.036,-711.722"/>
<polygon fill="black" stroke="black" points="321.976,-708.801 311.879,-705.593 317.771,-714.398 321.976,-708.801"/>
</g>
<!-- channel -->
<g id="node5" class="node"><title>channel</title>
<polygon fill="#ff4040" stroke="black" points="320,-777.403 258,-777.403 258,-741.403 320,-741.403 320,-777.403"/>
<text text-anchor="middle" x="289" y="-755.703" font-family="Times,serif" font-size="14.00">Channel</text>
</g>
<!-- thread1&#45;&gt;channel -->
<g id="edge4" class="edge"><title>thread1&#45;&gt;channel</title>
<path fill="none" stroke="black" d="M431.765,-813.279C400.641,-801.752 359.968,-786.688 330,-775.589"/>
<polygon fill="black" stroke="black" points="330.87,-772.178 320.277,-771.987 328.438,-778.743 330.87,-772.178"/>
</g>
<!-- hook&#45;&gt;yield_wait -->
<g id="edge17" class="edge"><title>hook&#45;&gt;yield_wait</title>
<path fill="none" stroke="black" d="M212.707,-741.279C225.669,-732.296 241.728,-721.166 255.765,-711.438"/>
<polygon fill="black" stroke="black" points="257.972,-714.166 264.198,-705.593 253.985,-708.413 257.972,-714.166"/>
</g>
<!-- run_queue_head -->
<g id="node13" class="node"><title>run_queue_head</title>
<polygon fill="#528b8b" stroke="black" points="414.5,-338.497 339.5,-338.497 339.5,-302.497 414.5,-302.497 414.5,-338.497"/>
<text text-anchor="middle" x="377" y="-316.797" font-family="Times,serif" font-size="14.00">Run queue</text>
</g>
<!-- resume&#45;&gt;run_queue_head -->
<g id="edge28" class="edge"><title>resume&#45;&gt;run_queue_head</title>
<path fill="none" stroke="black" d="M418.937,-669.293C411.907,-610.992 388.852,-419.786 380.263,-348.558"/>
<polygon fill="black" stroke="black" points="383.731,-348.08 379.059,-338.571 376.781,-348.918 383.731,-348.08"/>
</g>
<!-- task_switch -->
<g id="node9" class="node"><title>task_switch</title>
<polygon fill="gold" stroke="black" points="295.261,-597.453 299.407,-597.551 303.509,-597.699 307.552,-597.895 311.519,-598.139 315.394,-598.43 319.162,-598.768 322.808,-599.151 326.318,-599.579 329.679,-600.051 332.88,-600.564 335.909,-601.118 338.755,-601.711 341.411,-602.342 343.867,-603.009 346.118,-603.709 348.157,-604.442 349.981,-605.205 351.586,-605.995 352.97,-606.812 354.133,-607.652 355.073,-608.513 355.794,-609.393 356.296,-610.289 356.584,-611.2 356.661,-612.122 356.533,-613.053 356.206,-613.991 355.686,-614.932 354.98,-615.875 354.096,-616.816 353.043,-617.754 351.828,-618.685 350.461,-619.607 348.95,-620.517 347.306,-621.414 345.536,-622.294 343.651,-623.155 341.659,-623.995 339.569,-624.812 337.39,-625.602 335.13,-626.365 332.797,-627.097 330.398,-627.798 327.942,-628.465 325.434,-629.095 322.881,-629.689 320.289,-630.243 317.662,-630.756 315.007,-631.228 312.326,-631.656 309.625,-632.039 306.906,-632.377 304.173,-632.668 301.429,-632.912 298.676,-633.108 295.916,-633.256 293.151,-633.354 290.384,-633.403 287.616,-633.403 284.849,-633.354 282.084,-633.256 279.324,-633.108 276.571,-632.912 273.827,-632.668 271.094,-632.377 268.375,-632.039 265.674,-631.656 262.993,-631.228 260.338,-630.756 257.711,-630.243 255.119,-629.689 252.566,-629.095 250.058,-628.465 247.602,-627.798 245.203,-627.097 242.87,-626.365 240.61,-625.602 238.431,-624.812 236.341,-623.995 234.349,-623.155 232.464,-622.294 230.694,-621.414 229.05,-620.517 227.539,-619.607 226.172,-618.685 224.957,-617.754 223.904,-616.816 223.02,-615.875 222.314,-614.932 221.794,-613.991 221.467,-613.053 221.339,-612.122 221.416,-611.2 221.704,-610.289 222.206,-609.393 222.927,-608.513 223.867,-607.652 225.03,-606.812 226.414,-605.995 228.019,-605.205 229.843,-604.442 231.882,-603.709 234.133,-603.009 236.589,-602.342 239.245,-601.711 242.091,-601.118 245.12,-600.564 248.321,-600.051 251.682,-599.579 255.192,-599.151 258.838,-598.768 262.606,-598.43 266.481,-598.139 270.448,-597.895 274.491,-597.699 278.593,-597.551 282.739,-597.453 286.91,-597.403 291.09,-597.403 295.261,-597.453"/>
<text text-anchor="middle" x="289" y="-611.703" font-family="Times,serif" font-size="14.00">Context switch</text>
</g>
<!-- yield_wait&#45;&gt;task_switch -->
<g id="edge20" class="edge"><title>yield_wait&#45;&gt;task_switch</title>
<path fill="none" stroke="black" d="M283.084,-669.1C282.289,-661.386 282.062,-652.116 282.405,-643.516"/>
<polygon fill="black" stroke="black" points="285.898,-643.728 283.105,-633.508 278.915,-643.239 285.898,-643.728"/>
</g>
<!-- channel&#45;&gt;resume -->
<g id="edge19" class="edge"><title>channel&#45;&gt;resume</title>
<path fill="none" stroke="black" d="M320.282,-741.814C338.579,-732.112 361.852,-719.77 381.416,-709.395"/>
<polygon fill="black" stroke="black" points="383.203,-712.409 390.398,-704.632 379.923,-706.225 383.203,-712.409"/>
</g>
<!-- channel&#45;&gt;yield_wait -->
<g id="edge18" class="edge"><title>channel&#45;&gt;yield_wait</title>
<path fill="none" stroke="black" d="M289,-741.1C289,-733.386 289,-724.116 289,-715.516"/>
<polygon fill="black" stroke="black" points="292.5,-715.508 289,-705.508 285.5,-715.508 292.5,-715.508"/>
</g>
<!-- thread2 -->
<g id="node6" class="node"><title>thread2</title>
<polygon fill="grey" stroke="black" points="120,-849.403 7.10543e-15,-849.403 7.10543e-15,-813.403 120,-813.403 120,-849.403"/>
<text text-anchor="middle" x="60" y="-827.703" font-family="Times,serif" font-size="14.00">OS thread2 routine</text>
</g>
<!-- thread2&#45;&gt;hook -->
<g id="edge5" class="edge"><title>thread2&#45;&gt;hook</title>
<path fill="none" stroke="black" d="M91.3123,-813.279C108.203,-804.042 129.247,-792.534 147.385,-782.615"/>
<polygon fill="black" stroke="black" points="149.473,-785.462 156.567,-777.593 146.114,-779.321 149.473,-785.462"/>
</g>
<!-- thread2&#45;&gt;resume -->
<g id="edge6" class="edge"><title>thread2&#45;&gt;resume</title>
<path fill="none" stroke="black" d="M67.918,-813.183C78.3603,-792.556 98.7715,-758.634 127,-741.403 207.453,-692.294 243.334,-722.648 336,-705.403 350.525,-702.7 366.41,-699.571 380.475,-696.739"/>
<polygon fill="black" stroke="black" points="381.244,-700.154 390.35,-694.74 379.855,-693.293 381.244,-700.154"/>
</g>
<!-- thread2&#45;&gt;yield_wait -->
<g id="edge7" class="edge"><title>thread2&#45;&gt;yield_wait</title>
<path fill="none" stroke="black" d="M53.1612,-813.283C46.5793,-793.695 39.7914,-761.713 56,-741.403 78.5663,-713.128 178.532,-698.78 239.961,-692.506"/>
<polygon fill="black" stroke="black" points="240.603,-695.96 250.213,-691.497 239.918,-688.993 240.603,-695.96"/>
</g>
<!-- thread2&#45;&gt;channel -->
<g id="edge8" class="edge"><title>thread2&#45;&gt;channel</title>
<path fill="none" stroke="black" d="M120.252,-815.36C157.417,-805.604 205.87,-792.019 248,-777.403 248.1,-777.369 248.2,-777.334 248.301,-777.299"/>
<polygon fill="black" stroke="black" points="249.642,-780.534 257.807,-773.783 247.214,-773.969 249.642,-780.534"/>
</g>
<!-- thread3 -->
<g id="node7" class="node"><title>thread3</title>
<polygon fill="grey" stroke="black" points="258,-849.403 138,-849.403 138,-813.403 258,-813.403 258,-849.403"/>
<text text-anchor="middle" x="198" y="-827.703" font-family="Times,serif" font-size="14.00">OS thread3 routine</text>
</g>
<!-- thread3&#45;&gt;hook -->
<g id="edge9" class="edge"><title>thread3&#45;&gt;hook</title>
<path fill="none" stroke="black" d="M195.528,-813.1C194.426,-805.386 193.102,-796.116 191.873,-787.516"/>
<polygon fill="black" stroke="black" points="195.323,-786.912 190.443,-777.508 188.393,-787.902 195.323,-786.912"/>
</g>
<!-- thread3&#45;&gt;resume -->
<g id="edge10" class="edge"><title>thread3&#45;&gt;resume</title>
<path fill="none" stroke="black" d="M253.529,-813.298C277.762,-804.509 305.862,-792.451 329,-777.403 356.508,-759.513 382.89,-732.652 400.294,-713.12"/>
<polygon fill="black" stroke="black" points="403.004,-715.338 406.955,-705.507 397.736,-710.728 403.004,-715.338"/>
</g>
<!-- thread3&#45;&gt;yield_wait -->
<g id="edge11" class="edge"><title>thread3&#45;&gt;yield_wait</title>
<path fill="none" stroke="black" d="M162.835,-813.345C149.018,-804.658 134.653,-792.666 127,-777.403 119.828,-763.101 117.609,-754.357 127,-741.403 152.562,-706.146 202.27,-693.91 239.915,-689.879"/>
<polygon fill="black" stroke="black" points="240.541,-693.336 250.183,-688.947 239.908,-686.365 240.541,-693.336"/>
</g>
<!-- thread3&#45;&gt;channel -->
<g id="edge12" class="edge"><title>thread3&#45;&gt;channel</title>
<path fill="none" stroke="black" d="M220.494,-813.1C231.955,-804.284 246.058,-793.435 258.484,-783.878"/>
<polygon fill="black" stroke="black" points="260.972,-786.379 266.764,-777.508 256.704,-780.831 260.972,-786.379"/>
</g>
<!-- threadN -->
<g id="node8" class="node"><title>threadN</title>
<polygon fill="grey" stroke="black" points="399.5,-849.403 276.5,-849.403 276.5,-813.403 399.5,-813.403 399.5,-849.403"/>
<text text-anchor="middle" x="338" y="-827.703" font-family="Times,serif" font-size="14.00">OS threadN routine</text>
</g>
<!-- threadN&#45;&gt;hook -->
<g id="edge13" class="edge"><title>threadN&#45;&gt;hook</title>
<path fill="none" stroke="black" d="M301.306,-813.279C280.982,-803.795 255.529,-791.917 233.898,-781.822"/>
<polygon fill="black" stroke="black" points="235.117,-778.529 224.575,-777.472 232.157,-784.872 235.117,-778.529"/>
</g>
<!-- threadN&#45;&gt;resume -->
<g id="edge14" class="edge"><title>threadN&#45;&gt;resume</title>
<path fill="none" stroke="black" d="M394.436,-813.363C411.436,-805.298 428.173,-793.734 438,-777.403 449.396,-758.465 443.162,-733.505 435.217,-714.838"/>
<polygon fill="black" stroke="black" points="438.37,-713.318 430.99,-705.715 432.018,-716.26 438.37,-713.318"/>
</g>
<!-- threadN&#45;&gt;yield_wait -->
<g id="edge15" class="edge"><title>threadN&#45;&gt;yield_wait</title>
<path fill="none" stroke="black" d="M338.95,-813.369C339.376,-794.972 338.297,-765.116 329,-741.403 325.087,-731.422 318.738,-721.698 312.239,-713.362"/>
<polygon fill="black" stroke="black" points="314.84,-711.015 305.776,-705.53 309.441,-715.471 314.84,-711.015"/>
</g>
<!-- threadN&#45;&gt;channel -->
<g id="edge16" class="edge"><title>threadN&#45;&gt;channel</title>
<path fill="none" stroke="black" d="M325.888,-813.1C320.132,-804.877 313.138,-794.887 306.794,-785.824"/>
<polygon fill="black" stroke="black" points="309.575,-783.693 300.973,-777.508 303.84,-787.707 309.575,-783.693"/>
</g>
<!-- task_switch&#45;&gt;yield_wait -->
<g id="edge21" class="edge"><title>task_switch&#45;&gt;yield_wait</title>
<path fill="none" stroke="black" d="M294.895,-633.508C295.701,-641.195 295.937,-650.457 295.604,-659.069"/>
<polygon fill="black" stroke="black" points="292.109,-658.884 294.916,-669.1 299.092,-659.363 292.109,-658.884"/>
</g>
<!-- scheduler -->
<g id="node10" class="node"><title>scheduler</title>
<ellipse fill="deepskyblue" stroke="black" cx="289" cy="-511.199" rx="50.41" ry="50.41"/>
<text text-anchor="middle" x="289" y="-514.999" font-family="Times,serif" font-size="14.00">Scheduler</text>
<text text-anchor="middle" x="289" y="-499.999" font-family="Times,serif" font-size="14.00">runtime</text>
</g>
<!-- task_switch&#45;&gt;scheduler -->
<g id="edge22" class="edge"><title>task_switch&#45;&gt;scheduler</title>
<path fill="none" stroke="black" d="M283.783,-597.066C282.993,-589.788 282.508,-580.857 282.329,-571.551"/>
<polygon fill="black" stroke="black" points="285.827,-571.341 282.254,-561.367 278.828,-571.392 285.827,-571.341"/>
</g>
<!-- scheduler&#45;&gt;task_switch -->
<g id="edge23" class="edge"><title>scheduler&#45;&gt;task_switch</title>
<path fill="none" stroke="black" d="M295.746,-561.367C295.785,-570.176 295.556,-579.062 295.06,-586.976"/>
<polygon fill="black" stroke="black" points="291.562,-586.809 294.217,-597.066 298.537,-587.392 291.562,-586.809"/>
</g>
<!-- event_loop -->
<g id="node12" class="node"><title>event_loop</title>
<polygon fill="#cdb79e" stroke="black" points="293.877,-389.044 297.106,-389.142 300.302,-389.29 303.452,-389.486 306.542,-389.73 309.56,-390.021 312.495,-390.359 315.335,-390.742 318.07,-391.17 320.688,-391.641 323.182,-392.155 325.541,-392.709 327.758,-393.302 329.827,-393.933 331.74,-394.6 333.494,-395.3 335.082,-396.033 336.503,-396.795 337.753,-397.586 338.831,-398.402 339.737,-399.242 340.469,-400.104 341.031,-400.984 341.422,-401.88 341.646,-402.791 341.707,-403.713 341.607,-404.644 341.352,-405.581 340.947,-406.523 340.397,-407.466 339.709,-408.407 338.888,-409.345 337.942,-410.276 336.877,-411.198 335.7,-412.108 334.419,-413.005 333.04,-413.885 331.572,-414.746 330.02,-415.586 328.392,-416.402 326.695,-417.193 324.934,-417.956 323.117,-418.688 321.248,-419.389 319.335,-420.055 317.381,-420.686 315.393,-421.279 313.373,-421.834 311.327,-422.347 309.259,-422.818 307.171,-423.246 305.066,-423.63 302.948,-423.968 300.82,-424.259 298.682,-424.503 296.537,-424.699 294.387,-424.846 292.234,-424.945 290.078,-424.994 287.922,-424.994 285.766,-424.945 283.613,-424.846 281.463,-424.699 279.318,-424.503 277.18,-424.259 275.052,-423.968 272.934,-423.63 270.829,-423.246 268.741,-422.818 266.673,-422.347 264.627,-421.834 262.607,-421.279 260.619,-420.686 258.665,-420.055 256.752,-419.389 254.883,-418.688 253.066,-417.956 251.305,-417.193 249.608,-416.402 247.98,-415.586 246.428,-414.746 244.96,-413.885 243.581,-413.005 242.3,-412.108 241.123,-411.198 240.058,-410.276 239.112,-409.345 238.291,-408.407 237.603,-407.466 237.053,-406.523 236.648,-405.581 236.393,-404.644 236.293,-403.713 236.354,-402.791 236.578,-401.88 236.969,-400.984 237.531,-400.104 238.263,-399.242 239.169,-398.402 240.247,-397.586 241.497,-396.795 242.918,-396.033 244.506,-395.3 246.26,-394.6 248.173,-393.933 250.242,-393.302 252.459,-392.709 254.818,-392.155 257.312,-391.641 259.93,-391.17 262.665,-390.742 265.505,-390.359 268.44,-390.021 271.458,-389.73 274.548,-389.486 277.698,-389.29 280.894,-389.142 284.123,-389.044 287.372,-388.994 290.628,-388.994 293.877,-389.044"/>
<text text-anchor="middle" x="289" y="-403.294" font-family="Times,serif" font-size="14.00">Event loop</text>
</g>
<!-- scheduler&#45;&gt;event_loop -->
<g id="edge24" class="edge"><title>scheduler&#45;&gt;event_loop</title>
<path fill="none" stroke="black" d="M289,-460.893C289,-452.049 289,-443.133 289,-435.207"/>
<polygon fill="black" stroke="black" points="292.5,-435.112 289,-425.112 285.5,-435.112 292.5,-435.112"/>
</g>
<!-- timer -->
<g id="node11" class="node"><title>timer</title>
<ellipse fill="green" stroke="black" cx="289" cy="-320.497" rx="32.4942" ry="32.4942"/>
<text text-anchor="middle" x="289" y="-316.797" font-family="Times,serif" font-size="14.00">Timer</text>
</g>
<!-- timer&#45;&gt;event_loop -->
<g id="edge25" class="edge"><title>timer&#45;&gt;event_loop</title>
<path fill="none" stroke="black" d="M295.536,-352.586C295.874,-361.213 295.812,-370.509 295.349,-378.889"/>
<polygon fill="black" stroke="black" points="291.857,-378.648 294.549,-388.895 298.835,-379.206 291.857,-378.648"/>
</g>
<!-- event_loop&#45;&gt;timer -->
<g id="edge26" class="edge"><title>event_loop&#45;&gt;timer</title>
<path fill="none" stroke="black" d="M283.451,-388.895C282.624,-381.327 282.224,-372.066 282.251,-362.861"/>
<polygon fill="black" stroke="black" points="285.756,-362.656 282.464,-352.586 278.758,-362.511 285.756,-362.656"/>
</g>
<!-- event_loop&#45;&gt;run_queue_head -->
<g id="edge27" class="edge"><title>event_loop&#45;&gt;run_queue_head</title>
<path fill="none" stroke="black" d="M306.386,-389.3C319.353,-376.85 337.26,-359.656 351.796,-345.698"/>
<polygon fill="black" stroke="black" points="354.257,-348.187 359.046,-338.736 349.409,-343.138 354.257,-348.187"/>
</g>
<!-- run_queue_head&#45;&gt;scheduler -->
<g id="edge29" class="edge"><title>run_queue_head&#45;&gt;scheduler</title>
<path fill="none" stroke="black" d="M374.744,-338.66C371.516,-359.76 364.425,-396.299 351,-424.994 344.701,-438.458 336.155,-451.958 327.423,-464.115"/>
<polygon fill="black" stroke="black" points="324.503,-462.178 321.374,-472.3 330.132,-466.339 324.503,-462.178"/>
</g>
<!-- Task1 -->
<g id="node14" class="node"><title>Task1</title>
<ellipse fill="none" stroke="black" cx="347" cy="-234" rx="32.4942" ry="18"/>
<text text-anchor="middle" x="347" y="-230.3" font-family="Times,serif" font-size="14.00">Task1</text>
</g>
<!-- run_queue_head&#45;&gt;Task1 -->
<g id="edge30" class="edge"><title>run_queue_head&#45;&gt;Task1</title>
<path fill="none" stroke="black" d="M370.929,-302.398C366.754,-290.639 361.128,-274.793 356.38,-261.421"/>
<polygon fill="black" stroke="black" points="359.604,-260.038 352.96,-251.785 353.007,-262.38 359.604,-260.038"/>
</g>
<!-- Task2 -->
<g id="node15" class="node"><title>Task2</title>
<ellipse fill="none" stroke="black" cx="347" cy="-162" rx="32.4942" ry="18"/>
<text text-anchor="middle" x="347" y="-158.3" font-family="Times,serif" font-size="14.00">Task2</text>
</g>
<!-- Task1&#45;&gt;Task2 -->
<g id="edge31" class="edge"><title>Task1&#45;&gt;Task2</title>
<path fill="none" stroke="black" d="M347,-215.697C347,-207.983 347,-198.712 347,-190.112"/>
<polygon fill="black" stroke="black" points="350.5,-190.104 347,-180.104 343.5,-190.104 350.5,-190.104"/>
</g>
<!-- Task3 -->
<g id="node16" class="node"><title>Task3</title>
<ellipse fill="none" stroke="black" cx="347" cy="-90" rx="32.4942" ry="18"/>
<text text-anchor="middle" x="347" y="-86.3" font-family="Times,serif" font-size="14.00">Task3</text>
</g>
<!-- Task2&#45;&gt;Task3 -->
<g id="edge32" class="edge"><title>Task2&#45;&gt;Task3</title>
<path fill="none" stroke="black" d="M347,-143.697C347,-135.983 347,-126.712 347,-118.112"/>
<polygon fill="black" stroke="black" points="350.5,-118.104 347,-108.104 343.5,-118.104 350.5,-118.104"/>
</g>
<!-- TaskN -->
<g id="node17" class="node"><title>TaskN</title>
<ellipse fill="none" stroke="black" cx="377" cy="-18" rx="34.394" ry="18"/>
<text text-anchor="middle" x="377" y="-14.3" font-family="Times,serif" font-size="14.00">TaskN</text>
</g>
<!-- Task3&#45;&gt;TaskN -->
<g id="edge33" class="edge"><title>Task3&#45;&gt;TaskN</title>
<path fill="none" stroke="black" d="M354.11,-72.411C357.571,-64.3352 361.815,-54.4312 365.705,-45.3547"/>
<polygon fill="black" stroke="black" points="369.011,-46.5264 369.733,-35.9562 362.577,-43.7689 369.011,-46.5264"/>
</g>
<!-- TaskN&#45;&gt;run_queue_head -->
<g id="edge34" class="edge"><title>TaskN&#45;&gt;run_queue_head</title>
<path fill="none" stroke="black" d="M381.464,-36.0469C383.935,-46.3698 386.752,-59.8472 388,-72 396.171,-151.582 394.455,-172.261 388,-252 386.918,-265.363 384.651,-280.07 382.454,-292.336"/>
<polygon fill="black" stroke="black" points="378.971,-291.917 380.573,-302.391 385.852,-293.205 378.971,-291.917"/>
</g>
</g>
</svg>
